# xmcd
#
# Track frame offsets: 
#        152
#        19000
#        32956
#        51928
#        69836
#        96076
#        115380
#        134124
#        157476
#        178044
#        197016
#        221916
#        246892
#
# Disc length: 3526 seconds
#
# Revision: 0
# Processed by: cddbd v1.5.2PL0 Copyright (c) Steve Scherf et al.
# Submitted via: ExactAudioCopy v1.0b3
#
DISCID=c90dc40d
DTITLE=dorlis - Swingin' Street
DYEAR=1900
DGENRE=Jazz
TTITLE0=Intro〜alla Piazza di Spagna〜 24時間世界一周
TTITLE1=マーブルの月
TTITLE2=銀色プレゼント
TTITLE3=ひとりごとみたいにアイシテタ
TTITLE4=靴擦れ
TTITLE5=記憶の万華鏡
TTITLE6=恋のバーグラー
TTITLE7=ダプネリーフ
TTITLE8=5日目の笑顔
TTITLE9=月ドロボウ
TTITLE10=流星のタイムカプセル
TTITLE11=磁石の肌
TTITLE12=24時間世界一周 〜Party Swing Mix〜
EXTD=
EXTT0=
EXTT1=
EXTT2=
EXTT3=
EXTT4=
EXTT5=
EXTT6=
EXTT7=
EXTT8=
EXTT9=
EXTT10=
EXTT11=
EXTT12=
PLAYORDER=
